
            <svg xmlns="http://www.w3.org/2000/svg" xmlns:cc="http://creativecommons.org/ns#" xmlns:rdf="http://www.w3.org/1999/02/22-rdf-syntax-ns#" version="1.1" width="175.65625" height="53.1875">
              <defs>
                <style type="text/css">svg {
            background-color: #fff; }
          
          .root text,
          .root tspan {
            font: 12px Arial; }
          
          .root path {
            fill-opacity: 0;
            stroke-width: 2px;
            stroke: #000; }
          
          .root circle {
            fill: #6b6659;
            stroke-width: 2px;
            stroke: #000; }
          
          .anchor text, .any-character text {
            fill: #fff; }
          
          .anchor rect, .any-character rect {
            fill: #6b6659; }
          
          .escape text, .charset-escape text, .literal text {
            fill: #000; }
          
          .escape rect, .charset-escape rect {
            fill: #bada55; }
          
          .literal rect {
            fill: #dae9e5; }
          
          .charset .charset-box {
            fill: #cbcbba; }
          
          .subexp .subexp-label tspan,
          .charset .charset-label tspan,
          .match-fragment .repeat-label tspan {
            font-size: 10px; }
          
          .repeat-label {
            cursor: help; }
          
          .subexp .subexp-label tspan,
          .charset .charset-label tspan {
            dominant-baseline: text-after-edge; }
          
          .subexp .subexp-box {
            stroke: #908c83;
            stroke-dasharray: 6,2;
            stroke-width: 2px;
            fill-opacity: 0; }
          
          .quote {
            fill: #908c83; }
          </style>
              </defs>
              <metadata>
                <rdf:rdf>
                  <cc:license rdf:about="http://creativecommons.org/licenses/by/3.0/">
                    <cc:permits rdf:resource="http://creativecommons.org/ns#Reproduction"></cc:permits>
                    <cc:permits rdf:resource="http://creativecommons.org/ns#Distribution"></cc:permits>
                    <cc:requires rdf:resource="http://creativecommons.org/ns#Notice"></cc:requires>
                    <cc:requires rdf:resource="http://creativecommons.org/ns#Attribution"></cc:requires>
                    <cc:permits rdf:resource="http://creativecommons.org/ns#DerivativeWorks"></cc:permits>
                  </cc:license>
                </rdf:rdf>
              </metadata>
            <desc>Created with Snap</desc><g transform="matrix(1,0,0,1,15,10)" class="root"><g class="regexp match" transform="matrix(1,0,0,1,10,0)"><path d="M31.34375,11.59375H51.3438M76.00005,11.59375H101"></path><g class="match-fragment literal" transform="matrix(1,0,0,1,0,0)"><g class="label"><rect width="31.34375" height="23.1875" rx="3" ry="3"></rect><text x="0" y="0" transform="matrix(1,0,0,1,5,16.5938)"><tspan class="quote">“</tspan><tspan>ab</tspan><tspan class="quote">”</tspan></text></g></g><g class="match-fragment" transform="matrix(1,0,0,1,41.3438,0)"><path d="M10,11.59375q-10,0 -10,10v1.59375q0,10 10,10h24.65625q10,0 10,-10v-1.59375q0,-10 -10,-10M44.65625,26.59375l5,-5m-5,5l-5,-5"></path><g class="literal" transform="matrix(1,0,0,1,10,0)"><g class="label"><rect width="24.65625" height="23.1875" rx="3" ry="3"></rect><text x="0" y="0" transform="matrix(1,0,0,1,5,16.5938)"><tspan class="quote">“</tspan><tspan>b</tspan><tspan class="quote">”</tspan></text></g></g></g><g class="match-fragment literal" transform="matrix(1,0,0,1,101,0)"><g class="label"><rect width="24.65625" height="23.1875" rx="3" ry="3"></rect><text x="0" y="0" transform="matrix(1,0,0,1,5,16.5938)"><tspan class="quote">“</tspan><tspan>a</tspan><tspan class="quote">”</tspan></text></g></g></g><path d="M10,11.59375H0M135.65625,11.59375H145.65625"></path><circle cx="0" cy="11.59375" r="5"></circle><circle cx="145.65625" cy="11.59375" r="5"></circle></g></svg>
          